<?xml version="1.0" encoding="UTF-8" standalone="no"?>
<!-- Created with Inkscape (http://www.inkscape.org/) -->

<svg
   width="248.4549mm"
   height="249.43771mm"
   viewBox="0 0 248.45489 249.43771"
   version="1.1"
   id="svg5"
   xml:space="preserve"
   inkscape:version="1.2.1 (9c6d41e410, 2022-07-14)"
   sodipodi:docname="Ivory-logo.svg"
   inkscape:export-filename="ivoryLogo.svg"
   inkscape:export-xdpi="17.501867"
   inkscape:export-ydpi="17.501867"
   xmlns:inkscape="http://www.inkscape.org/namespaces/inkscape"
   xmlns:sodipodi="http://sodipodi.sourceforge.net/DTD/sodipodi-0.dtd"
   xmlns="http://www.w3.org/2000/svg"
   xmlns:svg="http://www.w3.org/2000/svg"><sodipodi:namedview
     id="namedview7"
     pagecolor="#ffffff"
     bordercolor="#000000"
     borderopacity="0.25"
     inkscape:showpageshadow="2"
     inkscape:pageopacity="0.0"
     inkscape:pagecheckerboard="0"
     inkscape:deskcolor="#d1d1d1"
     inkscape:document-units="mm"
     showgrid="false"
     inkscape:zoom="0.09064429"
     inkscape:cx="832.92616"
     inkscape:cy="1185.9545"
     inkscape:window-width="1920"
     inkscape:window-height="1001"
     inkscape:window-x="-9"
     inkscape:window-y="-9"
     inkscape:window-maximized="1"
     inkscape:current-layer="layer1" /><defs
     id="defs2" /><g
     inkscape:label="Layer 1"
     inkscape:groupmode="layer"
     id="layer1"
     transform="translate(-407.44248,124.68265)"><g
       id="g10778"
       transform="matrix(1.7903709,0,0,1.7903709,-21.937148,693.17134)"><circle
         style="fill:#f87575;fill-opacity:1;stroke-width:0.437999;stroke-linecap:round;stroke-linejoin:round"
         id="circle9311"
         cx="310.67761"
         cy="-386.25464"
         r="64.216217" /><path
         style="fill:#5c95ff;fill-opacity:1;stroke-width:0.437999;stroke-linecap:round;stroke-linejoin:round"
         d="M 247.05844,-370.97728 H 367.8287 c 0,0 -10.94595,52.17567 -52.9054,49.98648 -41.95945,-2.18919 -60.20271,-24.44594 -60.20271,-24.44594 z"
         id="path9313" /><path
         style="fill:#b9e6ff;fill-opacity:1;stroke-width:0.284941"
         d="m 304.07323,-317.5687 c -10.87941,-1.04653 -22.04374,-4.79896 -31.4512,-10.57101 -12.51426,-7.67827 -22.70613,-19.86485 -28.18113,-33.69661 -4.95455,-12.51689 -5.97985,-27.59996 -2.77918,-40.88398 3.01946,-12.53197 9.33187,-23.8628 18.43262,-33.08666 13.50425,-13.68691 30.88977,-21.05725 49.53525,-20.99973 10.92153,0.0337 19.46668,2.05498 29.45745,6.96789 7.3391,3.60898 13.57019,8.11235 19.16815,13.85331 5.63707,5.78105 9.57091,11.2404 13.05944,18.12376 3.3218,6.55436 5.34904,12.81849 6.74844,20.85261 0.7066,4.05661 0.71843,16.08898 0.0201,20.50813 -1.79737,11.37516 -5.94314,21.28975 -12.77456,30.55033 -3.46766,4.70069 -8.45434,9.9578 -12.5105,13.18889 -9.33736,7.43808 -21.53543,12.72412 -33.88321,14.68331 -2.67174,0.42391 -12.29733,0.75452 -14.84175,0.50976 z m 9.24488,-9.53402 c 3.40278,-0.41732 5.68172,-1.12307 5.81207,-1.7999 0.0556,-0.28851 -0.0718,-0.63414 -0.28319,-0.76806 -0.21132,-0.13392 -4.31139,-0.24545 -9.11128,-0.24785 -7.41346,-0.003 -8.78045,0.06 -9.08178,0.42304 -0.52895,0.63735 0.0775,1.20602 1.82925,1.71526 3.27628,0.95244 6.79768,1.17263 10.83493,0.67751 z m 34.44482,-13.18179 c 0.51163,-0.21376 1.2735,-0.79661 1.69303,-1.29519 1.91483,-2.27565 1.50506,-5.21052 -0.9055,-6.48524 l -1.25579,-0.66408 h -37.78302 c -23.7201,0 -38.14397,0.10349 -38.75282,0.27813 -3.62428,1.03944 -3.66802,6.07778 -0.0692,7.97895 1.01524,0.53634 2.03626,0.55124 38.59301,0.56351 31.09105,0.0108 37.71018,-0.0543 38.48038,-0.37608 z m 13.47411,-18.96259 c 0.64509,-0.29293 1.54263,-1.01742 1.99459,-1.60996 0.7051,-0.92443 0.82175,-1.33266 0.82175,-2.87569 0,-1.69953 -0.0589,-1.85726 -1.07327,-2.87158 l -1.07326,-1.07329 -52.16291,-0.0736 c -48.32743,-0.0681 -52.237,-0.0383 -53.17046,0.40461 -2.98895,1.41835 -2.69923,6.31087 0.47305,7.98841 l 1.24079,0.65614 50.88844,-0.007 c 49.08578,-0.007 50.92999,-0.0251 52.06128,-0.53888 z m 5.38025,-19.11939 c 0.46985,-0.23704 1.11097,-0.94227 1.42472,-1.56717 0.52267,-1.04107 0.56746,-1.66106 0.53486,-7.40491 -0.0282,-4.98794 -0.15655,-6.93818 -0.62758,-9.5455 -1.8777,-10.39383 -6.02353,-19.47487 -12.68338,-27.78178 -2.42639,-3.02644 -7.94519,-8.33979 -11.30236,-10.88154 -2.54468,-1.92663 -8.12957,-5.50259 -8.59385,-5.50259 -0.11626,0 -0.25627,8.49482 -0.31111,18.87736 -0.10832,20.50978 -0.0505,19.73908 -1.76248,23.4824 -1.03189,2.25621 -3.56004,5.49459 -5.36793,6.87591 -6.97673,5.33064 -16.64723,4.94947 -22.37976,-0.88208 -0.95466,-0.97113 -1.99944,-2.10875 -2.32176,-2.52801 -0.95924,-1.24779 -2.19826,-3.97641 -2.53907,-5.59166 -0.44307,-2.09997 -0.39201,-5.88212 0.10468,-7.74846 1.16962,-4.39526 4.66715,-8.79357 8.56101,-10.76582 4.20637,-2.13053 10.70053,-2.14959 14.326,-0.042 0.51829,0.3013 0.99913,0.5478 1.06853,0.5478 0.0694,0 0.12618,-5.83087 0.12618,-12.95749 v -12.95756 l -0.82633,-0.42731 c -0.45448,-0.23501 -2.47401,-0.77951 -4.48782,-1.20998 -3.3955,-0.72582 -4.13759,-0.78238 -10.21515,-0.77866 -6.05517,0.003 -6.84624,0.0645 -10.40036,0.79934 -16.65269,3.44294 -30.69067,13.15215 -39.80842,27.53306 -6.07333,9.57908 -9.20699,20.40743 -9.27633,32.05446 -0.0362,6.10171 0.57284,8.03585 2.72848,8.66294 0.54667,0.15904 23.25085,0.24548 57.04158,0.21721 49.4738,-0.0413 56.23478,-0.0981 56.98769,-0.47796 z m -85.73572,-9.46677 c -1.74923,-0.46272 -3.7227,-2.56461 -4.30684,-4.58704 -0.55803,-1.93205 -0.42648,-3.09391 0.5901,-5.21189 1.93512,-4.03169 8.36531,-4.70705 11.06883,-1.16253 2.28227,2.99219 2.12495,6.51753 -0.40422,9.05774 -1.97456,1.98321 -4.26998,2.61215 -6.94787,1.90372 z"
         id="path9315" /></g></g></svg>
